<?xml version="1.0" encoding="UTF-8"?>
<svg id="Layer_1" xmlns="http://www.w3.org/2000/svg" version="1.1" xmlns:xlink="http://www.w3.org/1999/xlink" viewBox="0 0 2863.1 417.4">
  <!-- Generator: Adobe Illustrator 29.7.1, SVG Export Plug-In . SVG Version: 2.1.1 Build 8)  -->
  <defs>
    <style>
      .st0 {
        fill: url(#linear-gradient);
      }
    </style>
    <linearGradient id="linear-gradient" x1="578.3" y1="12.3" x2="3439.8" y2="659.5" gradientUnits="userSpaceOnUse">
      <stop offset="0" stop-color="#e67e22"/>
      <stop offset="1" stop-color="#d35400"/>
    </linearGradient>
  </defs>
  <path class="st0" d="M334.6,408.1h-86.7v-156.3H88.9v156.3H2.5V24.4h86.4v153.1h158.9V24.4h86.7v383.7h.1ZM337.1,410.6h-91.7v-156.3H91.4v156.3H0V21.9h91.4v153.1h153.9V21.9h91.7v388.7h.1ZM250.4,405.6h81.7V26.9h-81.7v153.1H86.4V26.9H5v378.7h81.4v-156.3h163.9v156.3h.1ZM584.5,414.8c-54.9,0-99.7-17.9-134.3-53.6-34.6-35.8-51.9-82.4-51.9-139.8s17.6-109.7,52.7-147.2,81.7-56.2,139.7-56.2,99,17.9,132.9,53.8c33.8,35.9,50.7,83.1,50.7,141.8s-17.5,108.9-52.6,145.8-80.8,55.4-137.1,55.4h0ZM588.2,92.4c-30.3,0-54.4,11.4-72.2,34.1s-26.8,52.8-26.8,90.3,8.9,68.1,26.8,90.2c17.8,22.1,41.2,33.2,70.1,33.2s53.4-10.7,70.9-32.2,26.2-51.3,26.2-89.5-8.5-70.7-25.4-92.8c-16.9-22.1-40.1-33.2-69.6-33.2h0ZM584.5,417.3c-55.4,0-101.2-18.3-136.1-54.4s-52.6-83.7-52.6-141.5,18-111.1,53.4-148.9c35.5-37.8,83.1-57,141.5-57s100.5,18.4,134.7,54.6c34.1,36.2,51.4,84.5,51.4,143.5s-17.9,110.3-53.3,147.6c-35.4,37.3-82.1,56.2-138.9,56.2h0ZM590.6,20.5c-57,0-103.4,18.6-137.9,55.4-34.5,36.8-52,85.7-52,145.5s17.2,103,51.2,138.1,78.5,52.9,132.5,52.9,100.9-18.4,135.3-54.6c34.4-36.3,51.9-84.8,51.9-144.1s-16.8-104.9-50-140.1c-33.2-35.2-77.2-53-131-53h0ZM586.1,342.7c-29.6,0-53.8-11.5-72.1-34.1-18.1-22.5-27.3-53.3-27.3-91.7s9.2-68.8,27.3-91.9c18.3-23.3,43.2-35.1,74.2-35.1s54.2,11.5,71.6,34.2c17.2,22.5,25.9,54.2,25.9,94.4s-9,69.2-26.8,91.1c-17.9,22-42.4,33.2-72.8,33.2h0ZM588.2,94.9c-29.4,0-53,11.2-70.3,33.2-17.4,22.2-26.2,52.1-26.2,88.8s8.8,67,26.2,88.6c17.3,21.4,40.2,32.2,68.2,32.2s52.1-10.5,69-31.3c17-20.9,25.7-50.5,25.7-87.9s-8.4-69.8-24.9-91.3c-16.4-21.4-39.1-32.2-67.6-32.2h-.1ZM1167,408.1h-94.2l-27.3-85.4h-136.5l-27,85.4h-93.7L928.1,24.4h102.5l136.5,383.7h0ZM1025.7,256.4l-41.2-129c-3-9.6-5.2-21.1-6.4-34.5h-2.1c-.9,11.2-3.1,22.4-6.7,33.4l-41.7,130h98.2,0ZM1170.5,410.6h-99.6l-27.3-85.4h-132.8l-27,85.4h-99.1L926.3,21.9h106l138.2,388.7ZM1074.6,405.6h88.8L1028.8,26.9h-99l-137.9,378.7h88.3l27-85.4h140.1l27.3,85.4h0ZM1029.1,258.9h-105.1l42.8-133.3c3.5-10.8,5.7-21.9,6.6-32.9l.2-2.3h6.7l.2,2.3c1.2,13.1,3.3,24.6,6.3,34l42.2,132.2h0ZM930.9,253.9h91.3l-40.2-125.7c-2.1-6.8-3.9-14.6-5.1-23.2-1.2,7.4-3,14.9-5.4,22.2l-40.7,126.8h.1ZM1355.6,291.5h-146.4v-59.1h146.4v59.1ZM1358.1,294h-151.4v-64.1h151.4v64.1ZM1211.8,289h141.4v-54.1h-141.4v54.1ZM1711.5,394.5c-28,13.6-64.6,20.3-109.7,20.3s-105.2-17.3-138.9-51.9c-33.7-34.6-50.6-80.7-50.6-138.3s19-111.1,56.9-149.3c37.9-38.2,87.1-57.3,147.6-57.3s69,4.7,94.7,14.2v83.2c-25.7-15.3-54.9-23-87.8-23s-65.1,11.3-87.2,34c-22.1,22.7-33.2,53.3-33.2,92s10.4,66.7,31.3,88.7,49,33,84.3,33,64.6-8.2,92.6-24.6v78.9h0ZM1601.8,417.3c-59.3,0-106.6-17.7-140.7-52.7-34-34.9-51.3-82.1-51.3-140.1s19.4-112.6,57.6-151.1c38.2-38.5,88.5-58,149.3-58s69.7,4.8,95.6,14.3l1.6.6v89.4l-3.8-2.3c-25.2-15-54.3-22.7-86.5-22.7s-63.9,11.2-85.4,33.2c-21.5,22.1-32.5,52.4-32.5,90.3s10.3,65.5,30.6,87c20.3,21.4,48,32.3,82.5,32.3s63.8-8.2,91.3-24.3l3.8-2.2v84.9l-1.4.7c-28.2,13.7-65.5,20.6-110.8,20.6h.1ZM1616.8,20.5c-59.5,0-108.6,19-145.8,56.5-37.2,37.5-56.1,87.2-56.1,147.5s16.8,102.6,49.9,136.6c33.1,33.9,79.2,51.2,137.1,51.2s79.8-6.5,107.2-19.4v-73.1c-27.3,15.1-57.6,22.8-90.1,22.8s-64.8-11.4-86.1-33.8c-21.2-22.4-32-52.8-32-90.4s11.4-70.8,33.9-93.8,52.5-34.7,89-34.7,60.2,7.1,85.3,21.2V34c-25-8.9-56-13.4-92.2-13.4h-.1ZM1854.7,408.1h-84.6V2.5h84.6v405.6ZM1857.2,410.6h-89.6V0h89.6v410.6ZM1772.6,405.6h79.6V5h-79.6v400.6ZM2056.4,414.8c-45.7,0-81.6-12.8-107.7-38.4s-39.2-60.3-39.2-104.2,13.6-80.8,40.7-106.4c27.1-25.6,63.8-38.4,110-38.4s81.2,12.8,107,38.4c25.9,25.6,38.8,59.4,38.8,101.5s-13.3,81.4-40,107.8c-26.7,26.4-63.2,39.6-109.6,39.6h0ZM2058.6,192.2c-20,0-35.5,6.9-46.6,20.6-11.1,13.7-16.6,33.2-16.6,58.3,0,52.6,21.2,78.9,63.7,78.9s60.7-27,60.7-81.1-20.4-76.8-61.3-76.8h.1ZM2056.4,417.3c-46.1,0-83-13.2-109.4-39.1-26.5-26-40-61.6-40-106s13.9-82.2,41.5-108.2c27.5-25.9,65-39.1,111.7-39.1s82.6,13.2,108.8,39.1c26.2,26,39.5,60.7,39.5,103.3s-13.7,82.8-40.7,109.6c-27,26.8-64.5,40.3-111.3,40.3h-.1ZM2060.2,130c-45.3,0-81.7,12.7-108.3,37.7-26.5,25-39.9,60.2-39.9,104.5s12.9,77.4,38.4,102.4,61.2,37.7,106,37.7,81.8-13.1,107.8-38.9c26.1-25.8,39.3-61.5,39.3-106.1s-12.8-74.8-38.1-99.8-60.7-37.7-105.3-37.7v.2ZM2059.1,352.6c-43.9,0-66.2-27.4-66.2-81.4s5.8-45.8,17.1-59.9c11.5-14.3,27.8-21.5,48.5-21.5,42.3,0,63.8,26.7,63.8,79.3s-21.3,83.6-63.2,83.6h0ZM2058.6,194.7c-19.1,0-34.1,6.6-44.6,19.7-10.6,13.2-16,32.3-16,56.8,0,51.4,20,76.4,61.2,76.4s58.2-25.7,58.2-78.6-19.2-74.3-58.8-74.3h0ZM2521.2,408.1h-84.3v-41.7h-1.3c-20.9,32.3-48.8,48.4-83.8,48.4-63.5,0-95.3-38.4-95.3-115.3v-165.4h84.3v157.9c0,38.7,15.3,58.1,46,58.1s27.3-5.3,36.4-15.9c9.1-10.6,13.6-25,13.6-43.2v-156.8h84.3v274h.1ZM2351.8,417.3c-64.9,0-97.8-39.6-97.8-117.8v-167.9h89.3v160.4c0,37.4,14.2,55.6,43.5,55.6s25.8-4.9,34.5-15,13-24.1,13-41.6v-159.3h89.3v279h-89.3v-38.1c-20.9,29.7-48.7,44.7-82.6,44.7h.1ZM2259.1,136.6v162.9c0,37.7,7.8,66.2,23.2,84.9,15.3,18.5,38.7,27.9,69.5,27.9s61.4-15.9,81.7-47.3l.7-1.1h5.2v41.7h79.3V136.6h-79.3v154.3c0,18.7-4.8,33.8-14.2,44.8-9.6,11.1-22.4,16.8-38.3,16.8-32.2,0-48.5-20.4-48.5-60.6v-155.4h-79.3,0ZM2860.5,408.1h-84.6v-37.7h-1.1c-19.3,29.6-47.5,44.4-84.8,44.4s-61.8-12.1-82.7-36.3c-20.9-24.2-31.3-57.9-31.3-101.3s11.5-81.6,34.5-108.9,53.2-40.9,90.4-40.9,59.9,12.7,73.9,38h1.1V2.5h84.6v405.6h0ZM2777.6,274.9v-20.6c0-17.8-5.2-32.6-15.5-44.4-10.3-11.8-23.8-17.7-40.4-17.7s-33.4,7.4-43.9,22.1c-10.5,14.7-15.8,34.9-15.8,60.6s5.1,42.6,15.3,55.7c10.2,13,24.3,19.5,42.3,19.5s31.1-6.9,41.9-20.6c10.8-13.7,16.2-31.9,16.2-54.6h-.1ZM2690.1,417.3c-34.9,0-63.3-12.5-84.6-37.1-21.2-24.5-31.9-59.1-31.9-102.9s11.8-82.9,35.1-110.5c23.4-27.8,54.5-41.8,92.4-41.8s57.6,11.2,72.4,33.3V0h89.6v410.6h-89.6v-33.7c-19.6,26.8-47.6,40.4-83.4,40.4ZM2701,130c-36.3,0-66.1,13.5-88.5,40.1-22.5,26.7-33.9,62.8-33.9,107.3s10.3,76.1,30.7,99.6c20.3,23.5,47.5,35.4,80.8,35.4s64-14.6,82.7-43.3l.7-1.1h4.9v37.7h79.6V5h-79.6v163h-5l-.7-1.3c-13.4-24.4-37.5-36.7-71.7-36.7ZM2719.5,352.6c-18.7,0-33.6-6.9-44.2-20.5-10.5-13.4-15.8-32.7-15.8-57.2s5.5-47,16.3-62.1c11-15.3,26.4-23.1,45.9-23.1s31.5,6.2,42.3,18.5c10.7,12.2,16.1,27.7,16.1,46.1v20.6c0,23.1-5.6,42-16.7,56.1-11.2,14.3-26,21.6-43.8,21.6h-.1ZM2721.6,194.7c-18,0-31.7,6.9-41.8,21-10.2,14.2-15.3,34.1-15.3,59.2s5,41.6,14.7,54.1c9.8,12.5,22.9,18.6,40.3,18.6s29.5-6.4,39.9-19.6,15.7-31.1,15.7-53v-20.6c0-17.1-5-31.5-14.9-42.8-9.8-11.2-22.8-16.8-38.5-16.8h0Z"/>
</svg>