<?xml version="1.0" encoding="UTF-8"?>
<svg id="Cloud" xmlns="http://www.w3.org/2000/svg" version="1.1" xmlns:xlink="http://www.w3.org/1999/xlink" viewBox="0 0 508.4 357.2">
  <!-- Generator: Adobe Illustrator 29.7.1, SVG Export Plug-In . SVG Version: 2.1.1 Build 8)  -->
  <defs>
    <style>
      .st0 {
        fill: none;
        stroke: #a3d3e5;
        stroke-miterlimit: 10;
        stroke-width: 5px;
      }

      .st1 {
        fill: url(#radial-gradient);
      }

      .st2 {
        fill: url(#radial-gradient1);
      }

      .st3 {
        fill: url(#radial-gradient2);
      }

      .st4 {
        fill: url(#radial-gradient4);
      }

      .st5 {
        fill: url(#radial-gradient3);
      }
    </style>
    <radialGradient id="radial-gradient" cx="173.1" cy="116" fx="173.1" fy="116" r="254.1" gradientUnits="userSpaceOnUse">
      <stop offset="0" stop-color="#fff"/>
      <stop offset=".5" stop-color="#fdfefe"/>
      <stop offset=".6" stop-color="#f6fafc"/>
      <stop offset=".7" stop-color="#eaf5f9"/>
      <stop offset=".8" stop-color="#d9edf4"/>
      <stop offset=".9" stop-color="#c3e2ee"/>
      <stop offset="1" stop-color="#a9d5e6"/>
      <stop offset="1" stop-color="#a3d3e5"/>
    </radialGradient>
    <radialGradient id="radial-gradient1" cx="176.5" cy="110.7" fx="32" fy="70.4" r="150" gradientUnits="userSpaceOnUse">
      <stop offset=".3" stop-color="#fff"/>
      <stop offset=".6" stop-color="#fdfefe"/>
      <stop offset=".7" stop-color="#f6fafc"/>
      <stop offset=".8" stop-color="#eaf5f9"/>
      <stop offset=".9" stop-color="#d9edf4"/>
      <stop offset=".9" stop-color="#c3e2ee"/>
      <stop offset="1" stop-color="#a9d5e6"/>
      <stop offset="1" stop-color="#a3d3e5"/>
    </radialGradient>
    <radialGradient id="radial-gradient2" cx="300.5" cy="193" fx="300.5" fy="193" r="161.3" gradientUnits="userSpaceOnUse">
      <stop offset=".2" stop-color="#fff"/>
      <stop offset=".6" stop-color="#fdfefe"/>
      <stop offset=".7" stop-color="#f6fafc"/>
      <stop offset=".8" stop-color="#eaf5f9"/>
      <stop offset=".9" stop-color="#d9edf4"/>
      <stop offset=".9" stop-color="#c3e2ee"/>
      <stop offset="1" stop-color="#a9d5e6"/>
      <stop offset="1" stop-color="#a3d3e5"/>
    </radialGradient>
    <radialGradient id="radial-gradient3" cx="299.2" cy="158.5" fx="286.2" fy="150.3" r="230.3" gradientUnits="userSpaceOnUse">
      <stop offset="0" stop-color="#fff"/>
      <stop offset=".5" stop-color="#fdfefe"/>
      <stop offset=".6" stop-color="#f6fafc"/>
      <stop offset=".7" stop-color="#eaf5f9"/>
      <stop offset=".8" stop-color="#d9edf4"/>
      <stop offset=".9" stop-color="#c3e2ee"/>
      <stop offset="1" stop-color="#a9d5e6"/>
      <stop offset="1" stop-color="#a3d3e5"/>
    </radialGradient>
    <radialGradient id="radial-gradient4" cx="261" cy="149.2" fx="261" fy="149.2" r="218.9" xlink:href="#radial-gradient2"/>
  </defs>
  <ellipse id="Shading5" class="st1" cx="98.7" cy="235.1" rx="96.2" ry="96.9"/>
  <ellipse id="Shading4" class="st2" cx="196.2" cy="112.5" rx="109.2" ry="110"/>
  <ellipse id="Shading3" class="st3" cx="338.8" cy="120.1" rx="75.7" ry="76.3"/>
  <ellipse id="Shading2" class="st5" cx="408.6" cy="235.7" rx="97.3" ry="98"/>
  <ellipse id="Shading1" class="st4" cx="253.4" cy="255.5" rx="98.5" ry="99.2"/>
  <path id="Outline" class="st0" d="M505.9,235.7c0,54.1-43.5,98-97.2,98s-51.8-11.2-69.4-29.4c-16.9,30.1-49,50.4-85.8,50.4s-69.6-20.8-86.4-51.4c-17.4,17.7-41.6,28.7-68.4,28.7-53.1,0-96.2-43.4-96.2-96.9s38.5-92.1,87.6-96.5c-2-8.4-3.1-17.1-3.1-26.1,0-60.8,48.9-110,109.2-110s77.5,23.2,96,57.5c12.8-10.1,29-16.1,46.6-16.1,41.8,0,75.7,34.1,75.7,76.2s-.7,12-2.1,17.7c51.9,2,93.4,45.1,93.4,97.9Z"/>
</svg>