<?xml version="1.0" encoding="UTF-8"?><svg id="Layer_1" xmlns="http://www.w3.org/2000/svg" xmlns:xlink="http://www.w3.org/1999/xlink" viewBox="0 0 562.87 563.12"><defs><style>.cls-1{fill:url(#linear-gradient-8);}.cls-1,.cls-2,.cls-3,.cls-4,.cls-5,.cls-6,.cls-7,.cls-8,.cls-9,.cls-10,.cls-11,.cls-12,.cls-13{stroke:#fff;stroke-width:3px;}.cls-1,.cls-10,.cls-13{stroke-linecap:round;stroke-linejoin:round;}.cls-2{fill:#3d7121;}.cls-2,.cls-3,.cls-4,.cls-5,.cls-6,.cls-7,.cls-8,.cls-9,.cls-11,.cls-12{stroke-miterlimit:10;}.cls-3{fill:url(#linear-gradient-4);}.cls-4{fill:url(#linear-gradient-6);}.cls-5{fill:url(#radial-gradient);}.cls-6{fill:url(#linear-gradient);}.cls-7{fill:url(#linear-gradient-2);}.cls-8{fill:url(#radial-gradient-2);}.cls-9{fill:url(#linear-gradient-3);}.cls-10{fill:url(#linear-gradient-9);}.cls-11{fill:url(#linear-gradient-7);}.cls-12{fill:url(#linear-gradient-5);}.cls-13{fill:url(#linear-gradient-10);}</style><radialGradient id="radial-gradient" cx="87.5" cy="330.58" fx="87.5" fy="330.58" r="322.69" gradientTransform="translate(1.19 597.34) scale(1 -1.08)" gradientUnits="userSpaceOnUse"><stop offset="0" stop-color="#f3e313"/><stop offset="1" stop-color="#d76a04"/></radialGradient><linearGradient id="linear-gradient" x1="155.85" y1="853.92" x2="192.58" y2="872.24" gradientTransform="translate(14 -514)" gradientUnits="userSpaceOnUse"><stop offset="0" stop-color="#3d4a5d"/><stop offset="1" stop-color="#36a0ae"/></linearGradient><linearGradient id="linear-gradient-2" x1="207.8" y1="834.36" x2="289.1" y2="834.36" gradientTransform="translate(14 -514)" gradientUnits="userSpaceOnUse"><stop offset="0" stop-color="#3d4a5d"/><stop offset="1" stop-color="#36a0ae"/></linearGradient><linearGradient id="linear-gradient-3" x1="169" y1="799.53" x2="205.77" y2="788.12" gradientTransform="translate(14 -514)" gradientUnits="userSpaceOnUse"><stop offset="0" stop-color="#3c495c"/><stop offset="1" stop-color="#36a0ae"/></linearGradient><linearGradient id="linear-gradient-4" x1="216.1" y1="734.28" x2="273.57" y2="701.1" gradientTransform="translate(14 -514)" gradientUnits="userSpaceOnUse"><stop offset="0" stop-color="#3c495c"/><stop offset="1" stop-color="#36a0ae"/></linearGradient><linearGradient id="linear-gradient-5" x1="185.25" y1="694.37" x2="153.6" y2="724.47" gradientTransform="translate(14 -514)" gradientUnits="userSpaceOnUse"><stop offset="0" stop-color="#3ba2b0"/><stop offset="1" stop-color="#3c495c"/></linearGradient><linearGradient id="linear-gradient-6" x1="155.21" y1="638.51" x2="133.65" y2="696.61" gradientTransform="translate(14 -514)" gradientUnits="userSpaceOnUse"><stop offset="0" stop-color="#36a0ae"/><stop offset="1" stop-color="#30384c"/></linearGradient><linearGradient id="linear-gradient-7" x1="94.35" y1="651.75" x2="78.21" y2="713.34" gradientTransform="translate(14 -514)" gradientUnits="userSpaceOnUse"><stop offset="0" stop-color="#38a0ae"/><stop offset="1" stop-color="#3b4255"/></linearGradient><linearGradient id="linear-gradient-8" x1="44.62" y1="689.83" x2="42.97" y2="644.08" gradientTransform="translate(14 -514)" gradientUnits="userSpaceOnUse"><stop offset="0" stop-color="#3d4356"/><stop offset="1" stop-color="#36a0ae"/></linearGradient><linearGradient id="linear-gradient-9" x1="16.94" y1="717.99" x2="4.93" y2="691.73" gradientTransform="translate(14 -514)" gradientUnits="userSpaceOnUse"><stop offset="0" stop-color="#3b4255"/><stop offset="1" stop-color="#39a0ae"/></linearGradient><linearGradient id="linear-gradient-10" x1="-14.18" y1="725.57" x2="-2.2" y2="747.01" gradientTransform="translate(14 -514)" gradientUnits="userSpaceOnUse"><stop offset="0" stop-color="#37a0ae"/><stop offset="1" stop-color="#3b4255"/></linearGradient><radialGradient id="radial-gradient-2" cx="86.5" cy="271.94" fx="86.5" fy="271.94" r="112.66" gradientTransform="translate(19.91 539.87) rotate(-2.13) scale(1 -1)" gradientUnits="userSpaceOnUse"><stop offset="0" stop-color="#36a0ae"/><stop offset=".43" stop-color="#236b83"/><stop offset="1" stop-color="#071f45"/></radialGradient></defs><g id="BlueSun"><path id="Sky" class="cls-5" d="M561.37,280.6c0,28.91-4.5,57.82-13.31,85.33-8.32,26.03-20.48,50.77-35.93,73.28-15.13,22.05-33.34,41.88-54.01,58.82-20.92,17.14-44.35,31.3-69.28,41.78-26.12,10.96-53.87,17.91-82.11,20.52-29.06,2.68-58.52.87-86.99-5.62-26.9-6.13-51.41-15.63-76.85-29.46-23.52-12.79-44.08-31.03-62.61-50.31-18.54-19.38-34.67-40.83-47.04-64.55-12.81-24.57-21.93-51.07-26.98-78.23C.89,303.4.06,273.84,3.79,244.85c3.57-27.8,11.19-54.62,22.9-80.08,11.21-24.37,26.16-47.51,43.82-67.67,17.62-20.14,38.15-37.73,60.77-52.1,23.06-14.63,48.3-25.89,74.63-33.21,27.94-7.81,57.11-11.17,86.04-10.1,28.75,1.07,57.29,6.54,84.3,16.22,25.64,9.2,49.86,22.17,71.74,38.33,21.49,15.89,40.7,34.89,56.88,56.19,16.34,21.62,29.62,45.64,39.07,71.06,9.93,26.67,15.98,55.99,17.4,84.12,0,0,0,1,0,12.99Z"/><path id="Grass" class="cls-2" d="M441.82,510.42c21.95-15.26,42.03-34.74,58.74-55.54,17.2-21.31,30.95-45.4,40.96-70.73,3.58-9.06,5.48-14.26,7.59-21.6-30.16-.02-526.19.08-535.38.08,3.24,11.17,3.52,11.04,5.45,16.14,8.58,22.6,17.68,40.19,30.28,58.63,3.27,4.76,8.08,11.29,13.04,17.45,6.91,8.57,13.26,15.48,16.4,18.7,9.15,9.41,15.76,15.79,24.59,23.35,21.25,18.19,35.08,28.84,70.33,43.1,17.37,7.03,36.71,16.16,82.71,20.49,38.21,3.6,72.27-1.71,100.68-9.59,6.41-1.78,7.66-2.34,12-3.71,5.58-1.76,10.93-3.81,16.68-6.16,5.18-2.12,12.78-5.39,21.12-9.64,12.36-6.31,24.57-13.87,34.79-20.95Z"/><g id="Sun"><g id="Rays"><path id="Ray10" class="cls-6" d="M250.17,362.59s-59.21-.12-66.37-.04c-3.32-.33-7.03-2.05-10.07-3.36-2.8-1.22-5.48-2.84-7.64-5.06-1.88-1.96-3.54-4.35-4-7.06-.51-2.83.67-5.37,2.83-7.16,4.24-3.61,10.43-3.62,15.6-2.56,3.46.7,6.8,2.03,10.12,3.23,3.49,1.27,7.01,2.58,10.52,3.85,7.09,2.61,14.19,5.22,21.28,7.76,9.32,3.46,26.8,10.09,27.73,10.39h0Z"/><path id="Ray9" class="cls-7" d="M314.09,309.58c7.53.22,14.99.35,22.52.53,7.46.24,14.86.53,22.24,1.82,3.45.58,6.87,1.3,10.21,2.36,3,.96,5.98,2.13,8.35,4.1,2.3,1.92,3.33,4.6,1.2,6.98-2.05,2.23-5.21,3.6-8.01,4.5-6.56,2.2-13.68,3.01-20.52,3.29-7.46.37-14.96.16-22.36-.05-15.13-.31-30.19-.82-45.32-1.21-15.07-.39-30.21-.73-45.32-1.11-7.49-.16-15.02-.16-22.5-.76-6.64-.54-13.54-1.46-19.86-3.65-2.29-.76-4.5-1.77-6.49-3.13-1.62-1.07-3.51-2.51-3.76-4.58-.55-4.67,6.36-6.75,9.68-7.86,10.29-3.49,21.32-3.55,32.09-3.39-.99-.01,57.6,1.47,87.85,2.17Z"/><path id="Ray8" class="cls-9" d="M236.66,267.84c1.51,2.52,1.83,5.79.9,8.54-1.87,5.35-7.31,8.03-12.49,9.46-3.47.97-7.04,1.62-10.57,2.44-3.64.9-7.27,1.83-10.89,2.7-3.6.92-7.21,1.82-10.8,2.72-3.29.9-6.67,1.94-10.07,2.14-5.16.36-10.81-1.73-12.89-6.78-2.26-5.55,1.28-11.45,6.11-14.22,2.9-1.65,6.2-2.44,9.41-3.18,3.62-.88,7.23-1.69,10.84-2.59,7.11-1.72,14.2-3.52,21.31-5.27,3.18-.8,6.57-1.48,9.88-1.2,3.08.26,7.71,2.69,9.27,5.24Z"/><path id="Ray7" class="cls-3" d="M323.48,168.5c1,3.12-1.03,6.31-2.74,8.78-3.68,5.24-8.83,9.18-14.19,12.62-6.12,3.93-12.59,7.36-18.92,10.91-6.55,3.63-13.06,7.35-19.59,11.02-13.14,7.4-26.29,14.78-39.42,22.2-6.09,3.47-12.19,6.92-18.81,9.27-5.2,1.88-13.32,4.78-18.07.43-5.07-4.61,1.79-12.29,5.16-15.71,4.69-4.74,10.37-8.39,16.09-11.8,12.72-7.49,25.76-14.42,38.63-21.64,11.03-6.17,22.03-12.43,33.03-18.69,5.25-2.97,10.48-5.88,16.1-8.14,5.07-2.06,10.57-3.72,16.1-3.31,2.73.2,5.83,1.4,6.63,4.05Z"/><path id="Ray6" class="cls-12" d="M216.64,172.74c-2.09,5.9-5.81,10.98-10.12,15.36-10.56,10.65-21.18,21.24-31.7,31.89-5.18,5.23-10.33,10.49-15.55,15.67-4.3,4.29-8.93,8.68-14.87,10.6-2.92.92-6.5,1.68-9.32.08-2.43-1.37-3.36-4.14-3.32-6.76.08-6.43,3.93-12.12,7.97-16.81,4.66-5.42,9.88-10.33,14.93-15.38,5.3-5.34,10.63-10.62,15.95-15.92,5.17-5.19,10.27-10.41,15.42-15.61,4.53-4.6,9.1-9.39,14.82-12.52,2.19-1.22,4.54-2.3,7.04-2.56,9.52-.98,10.9,5.89,8.74,11.98Z"/><path id="Ray5" class="cls-4" d="M212.24,45.28c4.49,1.9,3.23,8.15,2.61,12.04-1.11,6.92-3.55,13.58-6.56,19.9-3.07,6.48-6.68,12.66-10.14,18.94-3.59,6.55-7.17,13.12-10.75,19.68-7.21,13.19-14.44,26.41-21.65,39.59-3.59,6.57-7.19,13.15-10.78,19.73-3.32,6.09-6.66,12.24-10.76,17.85-3.65,5.03-7.82,10.08-13.46,12.99-2.01,1.05-4.85,1.89-6.75.14-2.2-1.98-2.08-5.54-1.9-8.24.4-6.98,2.82-13.72,5.6-20.09,2.88-6.55,6.46-12.75,9.87-19.01,14.45-26.38,28.9-52.8,43.31-79.18,4.12-7.56,8.26-15.17,13.56-22,2.5-3.24,5.24-6.32,8.41-8.88,1.6-1.29,3.15-2.4,5.3-3.19,1.52-.55,2.75-.76,4.09-.25Z"/><path id="Ray4" class="cls-11" d="M126.43,110.59c-1.32,6.92-3.26,13.74-4.99,20.58-1.79,7.28-3.5,14.56-5.28,21.85-3.51,14.49-7.38,28.94-10.61,43.49-1.3,5.95-2.16,12.32-5.65,17.48-2.72,4.04-8.84,9.24-13.89,5.88-4.73-3.17-5.78-9.63-5.48-14.88.43-7.08,2.62-13.94,4.32-20.78,3.61-14.5,7.02-29.06,10.51-43.58,1.4-5.8,2.84-11.62,4.22-17.43,1.37-5.79,2.55-11.66,4.21-17.35,1.35-4.63,2.95-9.74,6.23-13.39,1.63-1.83,4.07-3.47,6.57-3.47,4.47,0,5.41,1.12,6.78,2.33,0,0,1.71,1.62,2.75,4.81,1.38,4.24,1.04,10.53.3,14.45-1.32,6.92.74-3.92,0,0-1.32,6.92.74-3.92,0,0Z"/><path id="Ray3" class="cls-1" d="M53.6,203.46c1.69,3.19,5.24,8.09,9.36,5.33,2.84-1.9,4.08-5.87,4.96-8.99,3.39-12.05,2.54-24.82,1.95-37.18-.99-20.71-1.71-40.84-2.49-61.94-12.65,16.16-13.5,17.19-22.19,30.23.11,3.5.26,6.31.19,4.11-.06-1.7.15,3.4.23,5.09.15,3.28.29,6.57.43,9.85.29,6.54.52,13.08.86,19.61.43,8.34,1.31,16.62,3.36,24.73-.06-.25,1.77,6.07,3.35,9.16,1.24,2.34-1.58-3.09,0,0Z"/><path id="Ray2" class="cls-10" d="M33.68,227.04c2.93-.02,5.45-1.91,6.91-4.34,3.16-5.19,1.91-11.72.44-17.22-.95-3.47-2.19-6.81-3.32-10.2-1.18-3.47-9.92-32.44-9.98-32.65-4.66,10.38-10.66,25.07-13.78,35.63,3.04,9.51,3.47,9.9,4.55,12.61,1.9,4.8,3.91,8.77,7.62,12.76,1.01,1.04,4.52,3.43,7.56,3.41Z"/><path id="Ray1" class="cls-13" d="M14.59,226.34c-.31-4.65-2.29-9.12-4.82-12.96-1.87,7.82-3.58,15.75-4.75,23.69,2.6.27,4.81-.44,6.09-1.19,2.98-1.75,3.71-6.11,3.48-9.53Z"/></g><path id="Body" class="cls-8" d="M139.53,267.47c-6.8-10.69-15.96-19.91-26.63-26.81-11.16-7.25-24.07-11.56-37.23-13.26-13.82-1.77-28.05.15-41.06,5.14-6.38,2.46-12.47,5.72-18.1,9.61-2.84,1.98-13.53,10.94-13.53,10.94-.58,7.64-1.1,15.77-1.33,24.11-.2,7.35-.12,14.75.46,22.08,1.16,14.65,2.9,29.04,6.29,43.33,1.46,6.14,2.91,12.52,5.33,20.01,0,0,.7,0,1.09,0,3.25.02,123.39,0,123.41-.02.55-.74,1.62-2.54,1.82-2.88,1.92-2.93,3.65-6,5.18-9.2,5.9-12.54,8.53-26.52,7.9-40.39-.4-8.19-1.89-16.35-4.6-24.09-2.7-7.7-6.73-14.85-11.01-21.73,1.39,2.23,2.84,4.44,4.22,6.67-1.35-2.17-2.75-4.31-4.1-6.48,1.36,2.19,2.74,4.37,4.13,6.54-1.39-2.17-2.78-4.34-4.13-6.54,1.35,2.19,2.74,4.37,4.13,6.54-.77-1.17-1.48-2.35-2.24-3.58-6.8-10.69,7.5,11.89,0,0Z"/></g></g></svg>