<?xml version="1.0" encoding="UTF-8"?><svg id="Layer_1" xmlns="http://www.w3.org/2000/svg" viewBox="0 0 844.93 486.08"><defs><style>.cls-1{fill:#bfb18c;stroke:#231f20;stroke-miterlimit:10;stroke-width:.25px;}.cls-2{fill:#473b26;}</style></defs><g id="Trees"><path class="cls-1" d="M141.32,401.04c-6.71,2.6-3.66,9.19-5.08,14.17h-21.91c-1.87-2.61-4.31-6-7.12-9.93-3.03,8.48-8.32,9.06-13.99,10.67-5.38,1.53-10.02-1.62-16.66.03-1.29-1.86-3.39-4.37-4.93-7.27-1.43-2.71-2.26-5.81-3.29-8.58,1.51-4.67,5.96-.2,8.03-3.97-5.85-1.02-8.26-7.36-12.09-9.9-3.93,4.57-7.49,8.71-11.05,12.85-7.48-.07-12.78-4.07-18.55-4.78-5.05-.62-10.35-2.62-14.95-2.22-2.88-4.15,1.06-5.59.73-9.03-8.27.72-7.55,9.69-10.91,14.57-2.95.19-5.93.95-8.97-.6-1.97-7.82,2.65-12.45,7.87-13.41,4.53-.84,6.05-5.04,9.27-6.28,2.41-.53,3.31,1.39,4.66,2.75,1.83-1.92,3.67-3.85,5.56-5.84h7.74c2.08-1.97,1.58-4.78,1.09-6.82-.85-3.52-5.74-4.55-5.06-9.36,2.18-2.49,4.66-1.47,7.11-.76.54,1.71,1.08,3.41,1.72,5.42,1.45-1.55,2.66-2.84,4.65-4.96-2.38-1.27-4.7-2.51-6.55-3.5,3-10.25-2.91-17.45-1.86-24.33,5.95-9.88,10.65-20.23,23.28-17.1.13-4.91-3.75-6.33-5.13-9.37-1.9-4.17-1.79-8.08-2.35-12.23-.58-4.31,2.08-7.45,3.64-10.04,1.92-3.19.46-8.09,4.54-8.7-.68-4.86-4.16-6.03-5.71-9.62,1.89-4.17,4.3-8.78,2.44-14.22-1.85-1.95-4.12-.5-6.17-.93-3.03,4.94-4.18,10.82-5.41,16.97,1.82,1.43,1.86,4.7,1.31,8.23-2.16,2.21-4.59,1.42-8.11.11,4.39-7.16,2.74-15.23,3.11-23.25,2.38-6.62,10.51-6.7,12.85-12.74,2.39-6.19,4.87-11.82,8.51-14.82,7.11-3.41,11.87,1.36,16.93,2.9,2.93.89,5.92-1.43,9.13,1.58,2.42,2.27,3.57.73,8.25-7.52-7.42-.09-13.53-4.62-21.08-3.94-3.4-32.91,6.29-59.89,26.25-84.74,4.24,8.2-1.69,9.34-3.02,12.76.81,1.38,2.81,2.02,3.27,1.28,2.57-4.16,7.38-4.94,10.04-9.39,1.73-2.89,5.26-5.52,9.36-5.29,3.93.22,7.87.05,11.81.05,3.8-2.8,8.55-4.06,10.91-8.4h13.46c-4.63,4.34-7.04,8.11-6.71,13.96.17,3.13-3.14,6.31-4,9.74-.97,3.88-6.8.31-6.13,6.44,4.91,6.32,9.28-2.91,14.48-1.43,4.93,1.4,10.43.3,16.32.3v-18.64c4.03-2.29,7.57-4.3,11.06-6.28.38-1.38-.66-3.1,3.14-4.96,3.11-1.32,5.51.86,7.29,8.97-3.91,4.33-7.58,8.4-11.31,12.52,3.51,3.95,6.74,1.81,9.54,2.56,4.34-6.71,7.29-14.4,13.96-20.63-4.98-3.87-6.37-9.48-9.83-14.05-6.16,3.86-12.88,1.53-19.36,2.36-3.21,2.79-5.42,6.14-3.37,11.36h-7.33c-1.95-2.21-.55-4.8-1.06-7.12-1.61-2.47-3.99-1.03-6.22-1.48-3.92-6.43-5.05-15.83-13.88-18-2.17-2.75.84-8.05-3.51-9.97,1.65-4.31-6.14-5.67-3.73-8.32,5.85-13.35,17.17-12.24,24.75-18.12-1.3-1.46-2.54-2.85-3.78-4.24-1.76,1.03-2.77,3.9-5.41,2.75-2.3-2.52-1.91-4.7,1.98-11.07,6.94-3.08,12.98,1.82,19.47,2.76.81,4.08,4.28,6.77,3.72,11.02,2.15.17,3.45.73,4.47-.62,5-6.58,12.77-8.41,18.69-13.6,3-2.63,6.48-4.78,7.99-8.58,3.05-7.73,8.75-8.68,14.76-9.44,2.11,4.67,1.36,8-1.77,10.75-2.92,2.61-6.72.04-9.99,1.62v7.31c2.98,1.97,6.05.68,8.93.98,4.15-2.41,3.78-8.52,7.7-11.44h5.9c.73,3.57,2.17,6,5.53,6.36,1.03,2.25,1.23,5.06.16,6.84-3.65,6.09-9.86,8.28-15.48,11.48,2.92,3.37,6.83.14,9.85,2.13,5.39,3.21,1.57,18.53,13.51,13.29,1.95-5.9-4.94-6.4-4.86-10.97-.47-5.75,4.82-10.27,2.46-15.68,2.57-5.15,8.05-4.69,10.67-9.55-5.76-.98-8.1-9.48-14.8-7.17-1.63-3.83-.87-7.18-.76-10.85,6.76-6.92,15.94-9.06,24.22-12.16,6.07-2.27,7.22-5.41,7.31-11.16,2.68-2.42,5.84-.55,9.74-1.38,2.09,2.91,4.53,6.32,6.62,9.24h5.9c2.93,3.29,5.72,6.41,8.65,9.7.18,4.14.65,8.37,4.81,10.77,3.52.47,4.61-3.53,7.29-5.67h13.53c4.99,8.96,15.53,10.39,22.77,18.87,19.1-15.73,38.6-27.26,61.83-13.48,1.17,7.04-1.26,13.7,3.21,17.86-.66,4.39-4.23,1.81-5.3,4.46v6.06c2.94,3.09,6.12,6.42,9.82,10.31,1.23.4,3.55-1.17,5.44.83,2.05,5.34-3.8,5.67-4.18,10.04,1.37,2.24,3.96.37,6.28.32,1.98-1.87-.61-8.82,5.14-5.31,1.72-4.51,1.76-7.96-1.7-10.41,1.68-1.79,2.74-3.81,4.23-4.35,6.19-2.25,12.42-4.74,18.82-5.82,6.66-1.12,12.85,2.81,19.27,4.44,13.17,3.34,23.73,12.28,34.19,21,5.42,4.52,11.37,7.16,17.75,10.51v9.41c5.04,1.87,8.5,5.1,10.9,9.63.2,3.57-3.98,5.39-2.64,9.17-.07,4.48,5.2,5.1,5.27,9.4.18,3.97-3.3,1.93-4.75,3.73,1.64,6.56,8.28,6.84,12.66,12.55,1.51,2.55-2.31,8.56,2.53,11.61-5.32,5.7-9.97-5.61-16.04.17,2.65,6.08,5.43,12.48,8.21,18.87-.33,3.27-3.12,4.42-5.08,7.39v11.34c-1.74,2.1-2.93,3.54-4.52,5.46-5.07-3.91-10.65-4.8-17.01-2.39,1.07,6.52,10.04,5.84,8.75,14.1,5.81-2.03,11.02,1.05,16.73-2.91,4.18-2.9,11.01-1.21,15.54,2.63,3.58,3.04,8.07,6.37,6.69,12.49,5.95,11.71,19.33,12.54,25.87,24.49v8.61c-2.28,4.49-6.15,4.87-10.21,4.18-.18,7.14,4.59,8.65,6.74,11.78,5.04.46,5.46-6.45,10.32-6.07,4.07.32,5.17,4.44,8.12,5.85,2.33-2.26.07-5.76,1.55-8.19q5.64,2,9.54,9.38c-.13,2.41-3.59,3.86-1.6,7.05,3.36,5.39,3.45,10.55-1.94,15.58h-10.23c-3.79,3.06-4.33,7.41-6.34,10.74q7.59,1.92,11.89,9.83c2,.39,3.29-.78,4.18-2.43,2.59,3.18,5.11,6.28,6.82,8.37h9.57c1.26,1.41,2.5,2.8,3.86,4.32-2.66,3.45-6.98,6.13-4.77,12.18,4.92,3.17,10.24,5.97,16.16,3.45,2.67,3.92,6.82,5.65,7.27,10.54-2.86,3.86-6.78.54-9.88,2.4-1.76,1.95-.36,4.55-.83,6.83-5,3.35-9.61,6.26-15.8,1.75-3.15-2.29-8.61,1.85-11.78-3.16-1.36,1.19-2.12,3.23-4.27,2.91-2.23-.33-4.89-.25-5.6,2.36-3.6,13.25-16.28,10.73-23.69,17.34-1.39,1.24-4.09.83-6.19.86-6.56.09-13.5-1.48-19.59.44-6.83,2.15-11.92-7.33-19.33-1.18-4.92,4.08-12.45,3.93-18.36,6.84-6.15,3.02-12.3,2.83-18.44,2.69-2.31-2.52-4.5-4.91-6.66-7.26v-5.94c-1.26-1.41-2.81-4.19-3.68-3.95-3.63,1.01-4.57-5.02-5.84-4.43-7.72,2.26-11.92,5.99-16.04,10.08-3.4-1.74-6.65-3.83-10.62-3.63-.41-2.88-.8-5.59-1.17-8.22-6.29,2.44-2.92,11-8.57,14.24h-10.83c-4.5-7.66-14.28-5.21-19-12.49-4.62-7.12-12.1-10.49-17.59-16.59h-17.24c-7.92,4.44-15.07,8.38-20.3,15.54-1.46,1.99-3.98,3.42-6.26,4.15-7.24,2.32-12.45,7.63-17.64,14.19,1.51,6.73-4.08,12.75-2.66,20.19.44.63.82,1.74,1.49,2.05,5,2.31,1.98,9.13,5.54,12.2,2.89,2.49,6.44,4.46,8.47,7.64,2.61,4.1,3.65,9.28,2.51,15.06h12.36c8.36,3.81,14.2,11.46,21.74,16.26,5.17,3.29,6.22,12.09,13.98,13.57,3.1-4.43,8.62-4.56,12.42-2.68,4.74,2.33,11.43,1.02,13.98,8.28,14.75.83,29.72-2.03,45.09,5.42H163.21q10.69-5.28,24.85-5.28h25.54c9.6-8.59,19.33-11.86,30.76-6.03,9.27-4.85,18.95-9.44,28.52-12.69,7.25-7.71,7.97-18.73,13.42-27.27,1.26-7.9-2.32-16.92,2.89-25.03-1.76-3.43-5.14-7.02-5.08-10.54.11-7.34-4.3-11.36-8.29-13.68-7.11-4.12-13.45-11.37-22.23-10.61-4.87.43-5.76-4.9-9.55-6.37-8.78-3.4-18.3-4.75-26.26-10.53-2.15-1.56-4.19-.78-6.24-.86-5.24-.21-10.49-.07-15.7-.07-8.41,8.11-19.63,11.27-27.65,19.13.08,5.01,3.65,6.11,5.3,8.88v8.83c-2.14,2.37-4.32,4.77-6.66,7.36-7.43-.65-14.15,3.08-18.75,4.6-2.94-1.67-4.88-2.77-6.74-4.42,1.92.03,2.71-.62,2.98-1.97.05-.23-.57-.92-.77-.87-1.2.3-1.78,1.2-2.21,2.83ZM372.02,319.54c-4.96-.93-10.28,3.83-13.28-.64-3.91,2.33-8.03,4.19-10.5,8.27-3.01-2.59-4.24-6.4-7.01-4.75-1.93,1.14-3.87,2.29-6.49,3.84,9.05,11.1,1.55,22.18,1.58,33.83,5.65-1.22,9.24-3.87,12.74-7.26,4.23-4.1,2.13-10.84,6.14-14.21-1.63-2.77-4.09-3.96-3.08-7.11,4.09-.44,6.43-4.54,9.31-7.33,2.16,3.42-.31,6.93,3.64,9.62-1.18-5.96,3-7.75,5.38-12.46,2.13-.48,2.54,2.2,4.1,2.76,1.43-2.46,5.65-3.67,2.97-8.08-2.44-.48-4.96-1.75-7.07.93,0,.98.65-.03,1.58,2.6ZM289.07,343.33c-2.12-2.17-4.35-4.46-7.02-7.19-4.64-.72-10.47,1.72-14.77-4-1.68,4.25-6.05,2.58-7.2,6.21.52,3.62,4.34,6.19,2.65,10.45,4.64,6.97,10.94,11.05,17.76,14.95,5.09,2.91,7.81,1.46,10.34-1.7,3.04-7.16-2.78-12.21-1.77-18.73ZM512.25,113.56c.41-2.77-.3-4.65-4.45-4.08-.83,1.02-2.23,2.76-3.34,4.13-.57,3.92.55,6.75,2.56,10.02-3.5,1.31-7.23-.95-10.38,1.65.05,1.17.1,2.5.15,3.64,4.36,2.93,9.84-1.77,13.52,3.27,4.6-3.88,8.97-2.42,13.99,2.6.38-8.78,7.11-1.85,9.27-7.58-3.93-10.32-15.01-7.46-21.32-13.64ZM228.77,344.35c10.17,2.52,18.29,9.88,28.25,9.18,1.37-5.83.03-10.71-4.08-11.21-4.26-.52-7.53-4.58-12.26-3.23-4.99-4.69-8.91-12.13-17.42-11.46.15,6.7,5.38,10.19,5.51,16.73ZM92.04,322.62c-3.9-1.69-8.05-6.68-11.37-3.89-4.58,3.84-9.01,1.79-14.13,2.79-.36,4.15-7.63,4.28-5.39,11.55,11.35.14,22.68,1.26,30.89-10.45ZM313.59,43.91c-3-3.09-5.22-5.38-7.63-7.86h-10.78c-1.54,2.52-.71,4.91-.75,8.36,7.06-2.38,6.49,6.16,9.77,9.84,3.3-3.63,5.91-6.52,9.38-10.34ZM65.37,342.84c-9.16-.55-15.51-7.18-21.31-3.59,3.74,4.36,7.84,9.15,12.05,14.05,2.07-2.34,4.64-5.24,9.26-10.46ZM380.89,331.55c-2.26-1.24-4.63-2.54-6.97-3.83-4.29,4.93-9.24,9.2-10.86,16.33,2.8,1.67,5.81.5,8.71.81,3.04-3.41,6.09-6.8,9.09-10.26.21-.24.03-.92.03-3.05ZM202.36,324.49v8.47c5.76-2.66,6.21,6.41,10.6,6.2,2.26-1.71,3.89-2.95,4.67-3.53-3.45-4.39-6.27-8-8.73-11.13h-6.53ZM93.67,392.33c1.69,1.78.22,6.47,4.53,5.53,2.02-2,5.3-3.26,4.13-7.62q-6.39-1.76-11.72-6.91c-1.45,2.49-5.66,3.71-2.89,8.28,1.95.24,4.01.49,5.95.72ZM186.8,344.48c-5.91,2.59-9.75-5.37-15.51-1.58-.35,2.69-1.44,5.48.96,7.98,4.76-1.06,10.95,2.8,14.55-6.4ZM238.16,327.64c.77-9.51.82-9.55-6.74-11.98-.77,5.75-.07,10.05,6.74,11.98ZM359.71,48.28c-3.4-1.28-6.59-1.2-10.04-.04,2.21,5.31,5.56,6.17,10.04,4.41v-4.37ZM210.33,54.82c-2.69-2.29-5.3-2.27-7.73-.28-.5,2.23-.5,4.03,1.83,4.77,2.98.5,3.84-2.94,5.89-4.49ZM219.37,91.41c-3.15-2.83-4.05-6.02-7.09-5.67-3.12,1.13-2.42,3.2-1.07,5.67h8.16Z"/><path class="cls-2" d="M747.37,381.45c-5.14-1.53-6.16,4.66-10.53,6.61s-10.66,3.11-16.62,0c-2.52-1.32-5.72-5.14-7.46-10.68-1.49-4.75,0-11.96,0-21.13-3.52,6.92-10.93,8.36-9.93,16.94.03.28-1.66.82-2.55,1.23-.89.41-1.78.81-2.91,1.33v10.31c-4.24,4.67-7.03,11.89-14.9,8.92-2.02-1.79.66-3.12.26-5.28,2.17.09,2.66-.75,2.58-3.19,1.51.29,1.73-2.03,2.05-3.63.05-.27-.68-1.1-.92-1.03-1.43.36-.72,1.84-1.87,3.12-1.45,1.63-3.65,1.11-4.88,3.22-6.35,10.84-18.6,3.25-26.49-8.44,1.78-6.66-3.58-5.33-4.9-8.6,1.83-1.93,2.71-2.21,1.37-6.15-1.51-.58-3.31-1.27-5.11-1.96-2.65-5.77-.08-9.66,3.74-13.06,1.8.77,2.31,3.88,4.85,3.33.4,3.31.1,3.45,2.83,7.73,3.79,3.21,7.03,2.18,10-3.17-1.61-7.64-2.97-4.78-7.87-3.55-1.93.49-2.42-1.56-4.96-1-1.11-4.81,1.5-7.74,4.46-10.16,2.68-2.2.82-7.08,4.38-8.53-12-7.77-17.54-6.41-32.32,8.04h-13.61c-2.4,3.31-5.33,7.36-8.19,11.31-8.57-2.4-16.22-5.86-24.46-4.16-1.63.34-2.84,1.28-2.48,3.5-7.55-5.11-4.14,8.61-9.63,7.04-4.11,6.47-5.84,13.1-9.21,21.11-5.41,4.62-13.17,17.13-14.86,21.46-3.09,7.91-8.09,12.69-13.39,18.44-.23,8.27,1.53,16.26,6.55,21.41,4.44,4.55,12.34,3.23,16.94,9.03,18.76,0,26.73-1.14,47.01,5.51,9.41,3.08,20.58,3.5,25.99,8.33,1.74,1.55,11.24,7.52,16.54,7.77,17.9.84,14.17,4.13,26.59,11.74-61.27,2.12-203.57,0-323.75,0,4.32-4.83,8.99-9.38,14.23-15.24,2.91.76,6.3-1.77,9.72-4.14,4.15,3.06,9.15,3.9,12.71,8.58,10.78-7.5,21.84-10.04,33.62-8.23.48-2.53,12.11-6.49,17.7-6.49,3.6-1.37.18-7.16,4.9-8.16,3.99-.85,9.46-2.55,11.19-7.11,2.36-6.21,20.27-12.87,23.79-18.54,5.09-8.2,8.83-17.14,12.64-25.88,5.18-11.86,13.36-15.48,24.49-15.27,3.52-12.88,15.49-18.67,19.44-31.66,2.58-8.48,3.69-15.19.14-23.81-1.78-4.32-5.03-2.8-6.56-5.64.92-1.17,1.86-2.39,2.99-3.83-4.43-3.68-7.07-9.72-12.6-12.15.26-1.7-.43-2.76-1.87-3.12-.24-.06-.98.76-.92,1.03.32,1.61,1.27,2.38,2.79,2.09q1.39,6.3,6.28,12.41c-3.85,3.72-6.49,8.99-12.24,10.14-.79,2.46-.27,4.47,1.26,5.68,2.65,2.33-.19,2.81-.52,4.04-4.28,16.2-5.59,18.36-20.72,5.83-3.55,6.14-10.86,6.92-14.74,12.99,1.03,1.27,2.06,2.54,3.06,3.78-6.26,11.34-7.62,11.95-27.46,12.06-.48,8.16-3.55,13.95-10.91,17.87-6.48,3.45-12.32,4.78-18.32,1.01-3.62-2.27-8.53-2.58-10.17-.99-5.02,4.87-7.62-1.04-11.17-1.62-2.5-5.51,2.16-9.3,2.66-12.97-2.74-9.57-9.63-5.79-14.45-7.21-4.25-4.47-6.96-9.49-7.75-15.39,6.34-6.14,10.46,3.63,15.88,1.65-.26,1.7.43,2.76,1.87,3.12.24.06.98-.76.92-1.03-.32-1.61-1.27-2.38-2.79-2.09.86-5.1,5.5-6.66,7.73-10.49,2.2,2.29,4.37,4.55,6.57,6.84,1.8-2.08,2.14-4.17.45-6.18-3.79-4.51-8.42-8.29-9.96-14.72-1.12,1.14-2.24,2.28-3.59,3.65-8-2.54-13.63-7.43-13.95-17.68,3.25-1.75,6.28-3.43,9.6-5.26-.52-5.26,1.33-10.98-1.22-16.11-1.81.21-2.81.33-5.08.59,1.56,7.26-2.34,13.53-3.31,20.78-.86-.15-1.91-.15-2.96-.15v-5.75c-5.94-1.9-12.02-3.83-18.29-5.83-.49-4.87-.62-10.14-6.36-13.35.26,5.84-2.8,10.47-3.53,15.85-.46,3.44-.09,7.02-.08,10.53,1.86,3.81,7.14,5.25,6.16,11.27-5.38,3.91-7.79-1.01-9.15-4.87-4.41-12.53-11.55-25.35.32-38.34-1.82-5.01-5.68-10.3-3.35-15.7,1.63-3.76,1.31-10.55,7.68-10.22-.23-8.31,7.99-12.7,7.76-21.01,3.31.61,5.59-1.05,8.15-3.4,6.11-5.59,14.12-6.73,21.24-9.99,5.18-2.38,13.87,2.43,18.05,8.32,1.79,2.52,3.61,5.91,7.44,5.07q-1.66-8.94,2.7-20.8c3.32-.18,6.82-.37,10.57-.57,2.96-9.06-2.05-19.57,4.09-27.9,1.51.29,2.46-.48,2.79-2.09.05-.27-.68-1.1-.92-1.03-1.43.36-2.13,1.43-1.87,3.12-5.13-.97-5.78-6.47-8.09-10.38-1.55,3.59-3.01,6.99-4.48,10.39-2.17-.09-3.22,1.08-3.14,3.52-8.37,2.96-16.75,5.91-25.1,8.94-.15.05-.02,1.06-.02,1.61-1.9-.42-4.1,1.02-6.55-2.18,4.85-7.81,7.05-18.15,16.53-22.5,2.77-1.27,5.21-3.23,5.72-6.99.87-.39,2.37-.61,2.49-1.19.43-2.11-.96-2.46-2.49-2.33-.11-3.31,1.09-7.21-3.15-8.04,2.88-6.21,10.66-8.07,9.43-16.59,1.56,0,3.12,0,4.69,0,2.38,2.83,2.13,7.55,6.23,10.12h16.29c2.37-3.17-2.95-3.5-2.22-6.56.65-2.72.14-5.79.14-9.15,3.77-1.92,7.7-3.92,12.29-6.26-1.5-11.09,8.36-12.79,13.17-19.21,6.19-8.25,15.52,1.11,20.67-9.09.64,3.57.93,5.16,1.28,7.08,2.35,2.69,5.31,1.45,8.75.5v-14.51c5-6.01,11.48-8.36,15.92-14.09,7.24-9.34,16.11-12.68,26.19-5.52,4.05-2.28,1.17-6.48,2.69-9.55.88-1.68,2.56-1.04,4.16-1.19,3.69,3.62.27,8.81,2.19,12.94,3.38,1.82,8.26,2.11,8.77,7.69.32,3.48,2.4,5.2,4.31,6.68,2.2,1.71,4.94,1.8,5.23-2.67,5.8-.43,9.73,4.01,13.84,6.39,8.54-3.32,13.74-11.42,20.71-17.3,5.2-.62,10.78,1.95,15.76-.87-.16-2.48.36-4.3-1.33-5.43-5.85-2.31-9.63,3.2-14.43,6.3-2.62.35-5.23.35-7.93.35-4-4.22,1.46-11.86-5.81-16.36,3.12-2.83,5.63-5.77,8.64-7.72,8.84-5.72,18.61-6.74,26.22.95,4.94,5,9.65,5.59,14.91,5.53,3.44,2.77.04,7.14,2.51,9.8,2.04,1.35,4.85,1.27,5.18-.98,1.08-7.26,6.67-7.98,10.77-8.5,8.97-1.14,17.96-.21,26.96-3.44,5.37-1.93,12.17-1.92,18.77,6.84,1.3,5.14,4.75,13.8,3.29,23.08,4.23,2.57,9.59-.66,11.47,5.33,1.53.87.77,1.3.25,2.59-3.87,9.54-4.03,12.98-1.44,21.17,5.28-.36,9.91,2.75,14.69,5.41-1.08,1.72-2.15,3.44-2.86,4.56-.14,4.4,3,5.28,4.37,7.74,2.96-5.49,10.06-.81,12.78-6.53,7.02,4.41,4.32,12.03,4.87,19.29,3.89,3.96,8.11,8.26,12.16,12.38v15.74c-4.34,6.96-12.48,10.84-18.04,18.15,5.21,3.01,11.61-.38,17.41,1.74,2.37,7.81,5.49,14.85,13.55,16.94,2.24,4.89,3.88,10.1,7.7,14.01,4.94,5.05,8.82,11.25,7.85,19.05-.98,7.87,9.81,7.79,6.34,15.68,3.8.46,6.27.77,8.53,1.04,1.64,3,.86,5.83.69,8.61-4.32,6.36-7.51-6.99-12.02-.55,3.16,5.36,9.32,8.45,10.42,16.11,8.69-.25,16.32-3.2,22.44-10.45,1.48,1.65,2.95,3.31,4.68,5.25-1.11,9.45-8.22,13.7-12.61,19.58-4.55-1.35-2.02-5.93-4.69-7.3-2.07,7.82-9.02,8.47-13.8,11.85,1.44,2.15,2.92,4.35,3.69,5.5,6.78.8,7.33-8.28,12.91-6.9,2.35,1.44,1.34,4.04,1.9,6.08,2.22,8.06,5.58,9.81,12.22,6.49,3.52-1.76,6.89-3.92,11.17-6.39,2.05,4.66,3.14,8.63-.69,12.22-6.3,5.91-11.73,14.32-21.9,6.57-2.83-2.15-8.07-.33-14.11-.33,2.81,3.77,4.76,6.39,6.73,9.04-2.15,2.41-6.17,1.2-7.68,5.23-1.07-2.56-2.07-4.95-3.06-7.32-8.29.33-4.31,9.78-8.86,13.68-2.95,2.53-7.79.84-14.35,1.56,13.53,4.78,24.23,10.21,34.99,2.11,3.52,2.25,1.88,5.49,2.37,8.44-2.66,3.87-9.12,2.49-9.58,9.11-8.27-4.85-15.74,4.03-22.8.15-5.62-3.09-11.99-5.97-14.78-13.34-.46-2.85,1.75-3.92,2.99-5.63-1.23-2.65-5.87-4.37-1.62-8.7,1.03.96,1.64,3.15,3.33,3.09,1.97-.06,2.79-2.95,4.29-4.54-.43-.83-.83-1.65-1.26-2.45-2.34-4.36-6.22-2.98-9.7-3.45-5.36-.73-8.08-4.21-7.44-10.49,1.51.29,2.46-.48,2.79-2.09.05-.27-.68-1.1-.92-1.03-1.43.36-2.13,1.43-1.87,3.12-4.2-.35-2.44,3.98-3.77,6-2.14,2.18-4.85.44-7.28,1.09-2.15,3.39-2.34,8.39-6.46,10.18-4.08-3.19-5.99-7.49-6.51-14.28-1.16,2.3-2.33,4.61-3.49,6.91-2.13,4.44,5.7,5.36,2.26,10.87,4.93.28,8.41.48,12.69.73,5.46.87,8.5,28.67,0,31.28ZM668.88,367.39c-.27,1.69.42,2.75,1.86,3.12.24.06.98-.76.92-1.03-.32-1.61-1.27-2.38-2.81-2.11.27-1.69-.42-2.75-1.86-3.12-.24-.06-.98.76-.92,1.03.32,1.61,1.27,2.38,2.81,2.11ZM376.8,275.91c-1.51-.3-2.46.47-2.78,2.08-.05.27.68,1.1.92,1.03,1.43-.36,2.13-1.43,1.89-3.15,1.51.3,2.46-.47,2.78-2.08.05-.27-.68-1.1-.92-1.03-1.43.36-2.13,1.43-1.89,3.15ZM448.85,242.77c-.59-.72-.38-2.66-.5-2.77-1.06-.95,1.37-2.2.08-3.27-2.23-1.83-1.9,1.64-3.87,1.67-1.2-2.33-.33-3.11-3.64-4.43-1.76,0-3.74,2.86-3.8,6.39,1.51,2.51,11.15,3.51,11.73,2.41ZM627.82,264.59c-2.77-.58-4.46,8.57-4.79,8.17-.16-.19-.98.76-.92,1.03.31,1.53,1.19,2.31,6.65-6.99.29-.5,1.04-.3,1.06.27.1,2.72-.82,5.38-2.33,7.58-1.72,2.49-4.44,4.18-5.91,8.11,9.61.77,8.68-8.5,12.5-12.43,1.4-1.05-.07-14.66-6.25-5.74ZM714.96,199.71c4.61,6.19,10.96,10.72,15.9,11.99-.01-13.11-.16-13.23-15.9-11.99ZM628.69,297.06c-.57,7.6-7.52,9.72-8.57,14.64-1.54,7.24-7.73,6.87-10.82,11.24-2.79,3.94-3.48,10.48-9.48,11.06,1.54,1.73,3.02,3.39,4.58,5.13,2.21-2.33,4.41-4.67,6.55-6.93,6.85-.08,13.62.59,20.2-1.76.23-.08.67.87,1.11,1.14.27.17.82.13,1.08-.08,2.8-2.27,5.28-4.8,8.41-6.82,5.69-3.67,9.81-10.32,14.76-15.51,3.53-3.7,4.49-7.49,1.5-12.11h-29.31ZM543.77,291.14v22.01c4.43,7.24,14.02,3.25,15.95,11.38,13.12-4.63,15.4-17.12,18.8-29.89-3.96-2.15-9.11.57-11.45-4.39-3.16,3.18-6.57,4.84-10.45,2.27-4.27-7.25,4.75-4.56,4.94-8.57-3.49-1.97-7.08-.78-10.51-.87-2.63,2.91-5.22,5.78-7.27,8.05ZM477.08,137.8c-8.16,8.16-17.2,13.64-21.31,24.24,1.59,1.78,2.69,3.02,3.81,4.27,6.91-6.06,14.46-9.99,22.93-10.07,1.49,3.05.41,5.81,3.49,7.13-.12-8.29,6.78-15.09,2.94-24-2.53-.35-3.31,4.23-6.22,2.81-1.6-1.24-3.21-2.49-5.65-4.38ZM657.9,315.79c5.04,2.68,8.04,4.29,11.48,6.12,4.68-6.71,12.09-2.01,17.98-4.72-1.03-3.93,2.81-5.48,2.79-7.3-3.65-11.7-11.24-1.32-16.97-5.11-4.21,2.82-6.69,10-15.27,11.01ZM597.42,305.56c7.38-4.62,10.54-11.57,14.78-17.29.06-.07-.58-.79-.9-1.21-4.7.46-4.86-4.19-6.36-7.07-2.56,1.36-5.1,2.71-7.52,4v21.58ZM725.9,175.04c7.2,3.14,11.02,11.13,16.89,16.27,1.44-12.41-1.79-15.75-16.89-16.27ZM537.02,272.49c-3.66-.19-5.89-.68-6.29,2.6-1.09,3.64,3.26,4.31,3.11,7.63-1.88,4.39-3.84,8.96-6.89,16.07,12.01-6.62,9.7-16.36,10.07-26.3ZM549.48,101.72c-12.51-.8-18.01,3.12-16.83,16.95,4.64-10.03,12.42-10.56,16.83-16.95ZM679.31,226.9c4.12,5.14-.6,10.23,4.12,13.34-.37-6.75,6.16-5.76,8.4-9.52.6-1.01,3.29-1.52.81-3.82h-13.34ZM457.69,221.31c2.63,7.65,6.33,10.6,12.74,8.02.58-5.46-6.1-.02-5.74-5.25.37-5.3-2.27-5.3-7.01-2.77ZM712.26,295.08c-3.88-.73-8.02-4.04-11.89,1.06,4.34,1.25,8.17,1.48,11.89-1.06ZM521,100.26c-2.69,6.8-6.97,5.89-11.04,12.21,5.24-3.16,8.02-.48,11.04-3.34v-8.87ZM780.27,255.26c2.44-4.47,1.99-7.61.13-11.5-2.25,4.1-2.11,7.21-.13,11.5ZM458.01,183.53c-.93-3.12-2.59-4.82-5.12-6.19-1.69,7.38.71,8.02,5.12,6.19ZM736.5,314.47c.36-.4,1-.78,1.01-1.2.06-1.53.42-3.58-.29-4.48-.77-.97-3.08-1.68-3.9-1.09-2.95,2.14.21,3.22,1.07,4.61.53.85,1.38,1.45,2.1,2.15ZM508.6,284.84c2.8,2.09,4.82,3.17,6.15-1.16-2.08-.75-3.83-1.73-6.15,1.16ZM497.72,296.97c-2.28,2.38-2.28,4.73,0,7.11,2.28-2.38,2.28-4.73,0-7.11ZM423.78,239.03c2.75,2.2,4.75,3.22,6.18-.99-1.98-.98-3.7-1.7-6.18.99ZM664.15,296.73c-2.03,3.2-2.95,5.43.46,6.89,1.7-2.06,1.6-4-.46-6.89ZM460.04,265.07c-2.03,3.2-2.95,5.43.46,6.89,1.7-2.06,1.6-4-.46-6.89ZM672.03,330.43c-2.12-2.56-4.22-2.56-6.34,0,2.12,2.56,4.22,2.56,6.34,0ZM786.62,272.34c-2.28,2.38-2.28,4.73,0,7.11,2.28-2.38,2.28-4.73,0-7.11ZM789.97,381.36c-2.06-.18-2.6,2.58-3.75,3.73-11.39-1.82-17.68-20.92-21.9-20.92-5.32,3.94-6.34,15.5-3.88,16.28,7.72,2.71,7.27,13.09,13.31,14.73h10.76c4.54-3.71,9.24-4.92,9.64-7.88s-2.13-5.76-4.19-5.94ZM513.77,59.76c-4.92,3.95-11.72,5-14.61,12.08,1.27,3.64,3.13,6.11,7.65,7.39.05-9.49,9.43.57,11.26-6.88,1.83-7.44,11.11-1.69,12.38-11-5.37,2.09-9.26-7.56-16.69-1.58ZM587.45,85.24c-2.1-3.19-3.42-7.85-8.96-5.79-1.06,4.4-1.28,8.66.29,13.56,5.53-.24,7.43-3.18,8.68-7.77ZM756.68,351.57c.01,5.45,3.2,7.56,8.45,9.46q.86-11.44-8.45-9.46ZM814.44,347.05c-2.07,1.02-1.65,3.76-.03,5.83,3.55.02,8.52,3.26,8.38-4.82-2.53-3.19-5.78-2.28-8.35-1.02ZM420.78,194.96c.4,2.16-.97,4.68,1.36,6.76,4.2,1.61,5.69-2.45,7.86-5.39-2.25-1.35-2.88-5.06-6.07-4.89.08,2.44-.97,3.61-3.14,3.52ZM411.36,170.33c-.87.39-2.37.61-2.49,1.19-.43,2.11.96,2.46,2.49,2.33v-3.52Z"/></g></svg>